<svg id="Layer_2" data-name="Layer 2" xmlns="http://www.w3.org/2000/svg" xmlns:xlink="http://www.w3.org/1999/xlink" viewBox="0 0 418.56 209.83"><defs><style>.cls-1{font-size:90px;}.cls-1,.cls-4{fill:#f90;}.cls-1,.cls-2{font-family:Calibri-Bold, Calibri;font-weight:700;}.cls-2{font-size:101px;}.cls-2,.cls-5{fill:#049de1;}.cls-3{letter-spacing:-0.02em;}.cls-6{fill:none;stroke:#c92d00;stroke-miterlimit:10;stroke-width:160px;}.cls-7{fill:#221d52;}.cls-8{fill:#0ba14b;}.cls-9{fill:#da2927;}.cls-10{fill:url(#radial-gradient);}</style><radialGradient id="radial-gradient" cx="527.35" cy="169.76" r="11.65" gradientTransform="translate(-111.33 57.22)" gradientUnits="userSpaceOnUse"><stop offset="0" stop-color="#ffed0b"/><stop offset="1" stop-color="#fff200"/></radialGradient></defs><text class="cls-1" transform="translate(0 85.18)">CLE</text><text class="cls-2" transform="translate(0.5 174.57)">C<tspan class="cls-3" x="53.46" y="0">L</tspan><tspan x="94.39" y="0">OUDIFY</tspan></text><path class="cls-4" d="M617.92,184.33c-7.75-15.86-21.59-24.05-40.15-24.05-15.38,0-27.26,5.82-35.36,16.7l4.62,8.63c6-10.45,17.14-16.83,30.22-17,16.37-.27,29.63,8.69,34.44,23.84a7.65,7.65,0,0,0,1.64,3.11l8.47-7.46A7,7,0,0,1,617.92,184.33Z" transform="translate(-260.12 -160.28)"/><path class="cls-5" d="M537,185.38a7.1,7.1,0,0,1-6.25,4.41c-13.71,1.84-24.27,13.78-24.26,27.08s10.82,25.39,24.61,27.3c9,1.25,18.06.42,27.1.56,2.92.05,4.06,1,4.25,3.69s-1.41,2.84-3.66,2.92c-2.47.09-5.13.9-3.28,3.86a71,71,0,0,0,7.5,9.7c2.19,2.43,4.94,2.1,7-.27a109.05,109.05,0,0,0,6.73-8.77c1.69-2.39.93-4.49-2.17-4.43-3.76.07-3.57-1.77-3.67-4.2-.28-7-4.77-11-12.31-11.13-3.73-.07-7.47,0-11.2,0s-7.19.06-10.78,0c-12.2-.24-21.54-8.71-21.29-19.25.26-11.29,9.75-19.47,22.41-18.93,3.17.14,4.33-.41,5.17-3.43a34.9,34.9,0,0,1,3.36-8l-4.62-8.63A50.6,50.6,0,0,0,537,185.38Z" transform="translate(-260.12 -160.28)"/><path class="cls-5" d="M627,190.07a32.5,32.5,0,0,1-4.36-1.18l-8.48,7.46c1.19,1.22,2.85,1.5,5.43,1.4,10.13-.42,19.08,6.56,20.5,15.37,1.64,10.21-3.92,19.47-14,21.92-9.55,2.34-19.43.84-29.16.86-2.33,0-3.47-2.06-3.89-4.22s.9-2.55,2.75-3.13c2.85-.89,3.65-2.87,1.88-5.34s-3.61-5.14-5.64-7.54c-2.28-2.69-4.88-2.8-7.19-.18a93.28,93.28,0,0,0-6.15,8.17c-1.68,2.41-.56,4.65,2,4.86,3.58.29,3.46,2.28,3.81,4.48,1,6.41,5.62,11.29,12.15,11.57,9.15.39,18.35.73,27.52-.32a29,29,0,0,0,11.57-4c9.65-5.69,15.4-17.21,13.24-27.59C646.68,201.08,639.48,193.11,627,190.07Z" transform="translate(-260.12 -160.28)"/><path class="cls-6" d="M478,211.13" transform="translate(-260.12 -160.28)"/><path class="cls-6" d="M452.54,216.83" transform="translate(-260.12 -160.28)"/><path class="cls-7" d="M427.92,187.69H412l-20.09,57.66h13.67l4-12.89h2.58a2,2,0,0,1,0-.34A3,3,0,0,1,413,230a2.8,2.8,0,0,1,1-.63l.1-.11c.33-.44.64-.9,1-1.31a10.27,10.27,0,0,1,1.66-1.43A6.69,6.69,0,0,1,421,225a6.45,6.45,0,0,1,4.12,1.85c.12.11.24.23.35.35a5.16,5.16,0,0,1,.67.32l.06,0a3,3,0,0,1,2.27-.3,3,3,0,0,1,1.77,1.36c.21.5.45,1,.64,1.47a5.27,5.27,0,0,1,.3,1.44,6.16,6.16,0,0,1-.22,2.34c0,.13-.08.25-.13.37l3.5,11.2H448Zm-15.24,34.75,7.25-23.29,7.25,23.29Z" transform="translate(-260.12 -160.28)"/><path class="cls-8" d="M391.87,245.35h14.77a35,35,0,0,1,5.65-7.76l-8.88-9.11C394.29,236.8,391.87,245.35,391.87,245.35Z" transform="translate(-260.12 -160.28)"/><rect class="cls-7" x="430.35" y="223.13" width="7.24" height="17.72" transform="translate(-310.4 -15.76) rotate(-17.89)"/><path class="cls-9" d="M425.16,216.57l2.46,11.3c11.44-5,23.2-2.79,23.2-2.79V213.35C440.35,212.54,431.93,214,425.16,216.57Z" transform="translate(-260.12 -160.28)"/><path class="cls-10" d="M403.41,228.48l8.88,9.11a40.6,40.6,0,0,1,16.34-10.06l-3.15-11.16A56,56,0,0,0,403.41,228.48Z" transform="translate(-260.12 -160.28)"/><text class="cls-1" transform="translate(189.98 85.18)">R</text></svg>