<svg xmlns="http://www.w3.org/2000/svg" xmlns:xlink="http://www.w3.org/1999/xlink" viewBox="0 0 414.1 175.7"><defs><style>.cls-1{fill:#f90;}.cls-2{fill:#049de1;}.cls-3{fill:#221d52;}.cls-4{fill:#0ba14b;}.cls-5{fill:#da2927;}.cls-6{fill:url(#radial-gradient);}</style><radialGradient id="radial-gradient" cx="263.75" cy="9.47" r="11.65" gradientTransform="translate(-111.33 57.22)" gradientUnits="userSpaceOnUse"><stop offset="0" stop-color="#ffed0b"/><stop offset="1" stop-color="#fff200"/></radialGradient></defs><g id="Layer_2" data-name="Layer 2"><g id="Layer_2-2" data-name="Layer 2"><path class="cls-1" d="M42.06,76.57c0,.73,0,1.35-.07,1.87a8.41,8.41,0,0,1-.2,1.32,3.69,3.69,0,0,1-.35.94,5,5,0,0,1-.7.9,9,9,0,0,1-1.87,1.3,22.34,22.34,0,0,1-3.38,1.51,28.74,28.74,0,0,1-4.57,1.21,30.36,30.36,0,0,1-5.56.49A29.08,29.08,0,0,1,14.81,84.3a20.77,20.77,0,0,1-8-5.38,24,24,0,0,1-5-8.94A40.21,40.21,0,0,1,0,57.5,39.51,39.51,0,0,1,1.93,44.62a26.77,26.77,0,0,1,5.41-9.45,22.58,22.58,0,0,1,8.33-5.8,28,28,0,0,1,10.7-2,26.16,26.16,0,0,1,4.57.4,28,28,0,0,1,4.06,1,20.09,20.09,0,0,1,3.36,1.48,9.84,9.84,0,0,1,2.09,1.42,5.23,5.23,0,0,1,.82,1,4.08,4.08,0,0,1,.35,1,12.28,12.28,0,0,1,.19,1.45c0,.56.07,1.25.07,2.07s0,1.62-.09,2.24A5.69,5.69,0,0,1,41.48,41a2.09,2.09,0,0,1-.52.84,1.09,1.09,0,0,1-.71.26,3,3,0,0,1-1.67-.77A27.08,27.08,0,0,0,36,39.59a21.37,21.37,0,0,0-3.82-1.71,16.06,16.06,0,0,0-5.3-.77,12.49,12.49,0,0,0-10.57,5.34,18.5,18.5,0,0,0-2.83,6.21,32,32,0,0,0-1,8.22,32.18,32.18,0,0,0,1,8.68,16.63,16.63,0,0,0,3,6,11.75,11.75,0,0,0,4.61,3.54,15.17,15.17,0,0,0,6.09,1.17,17.49,17.49,0,0,0,5.32-.73A22.68,22.68,0,0,0,36.32,74q1.6-.89,2.64-1.59a3.34,3.34,0,0,1,1.6-.7,1,1,0,0,1,1.14.88A6.7,6.7,0,0,1,42,74C42,74.67,42.06,75.51,42.06,76.57Z"/><path class="cls-1" d="M81.61,80.35a19.5,19.5,0,0,1-.11,2.22,7.42,7.42,0,0,1-.33,1.49,2,2,0,0,1-.55.86,1.23,1.23,0,0,1-.77.26H53.79a3.59,3.59,0,0,1-2.44-.85,3.53,3.53,0,0,1-1-2.79V29.9a1.22,1.22,0,0,1,.29-.79,1.89,1.89,0,0,1,.94-.57,8.44,8.44,0,0,1,1.78-.35,28.17,28.17,0,0,1,5.61,0,8.37,8.37,0,0,1,1.75.35,1.93,1.93,0,0,1,1,.57,1.21,1.21,0,0,1,.28.79V75.65H79.85a1.28,1.28,0,0,1,.77.24,1.76,1.76,0,0,1,.55.79,6.67,6.67,0,0,1,.33,1.45A19.5,19.5,0,0,1,81.61,80.35Z"/><path class="cls-1" d="M122.12,80.66a18.09,18.09,0,0,1-.1,2.13,6.08,6.08,0,0,1-.33,1.38,1.89,1.89,0,0,1-.55.77,1.23,1.23,0,0,1-.73.24H91.85a3.59,3.59,0,0,1-2.44-.85,3.53,3.53,0,0,1-1-2.79V32a3.54,3.54,0,0,1,1-2.8,3.59,3.59,0,0,1,2.44-.85h28.38a1.17,1.17,0,0,1,.71.22,1.7,1.7,0,0,1,.53.77,5.94,5.94,0,0,1,.32,1.4,16.46,16.46,0,0,1,.11,2.18,15.69,15.69,0,0,1-.11,2.09,5.63,5.63,0,0,1-.32,1.38,2,2,0,0,1-.53.77,1.13,1.13,0,0,1-.71.24H99.93V51.26h17.18a1.21,1.21,0,0,1,.73.24,1.79,1.79,0,0,1,.55.75,4.82,4.82,0,0,1,.33,1.36,17.46,17.46,0,0,1,.11,2.09,17,17,0,0,1-.11,2.1,4.92,4.92,0,0,1-.33,1.35,1.68,1.68,0,0,1-.55.72,1.26,1.26,0,0,1-.73.22H99.93v16h20.48a1.23,1.23,0,0,1,.73.24,1.89,1.89,0,0,1,.55.77,6,6,0,0,1,.33,1.39A18.09,18.09,0,0,1,122.12,80.66Z"/><path class="cls-2" d="M48.12,164.9c0,.82,0,1.52-.07,2.1a10.06,10.06,0,0,1-.23,1.48,4.11,4.11,0,0,1-.39,1.06,5.32,5.32,0,0,1-.79,1A9.94,9.94,0,0,1,44.55,172a25.1,25.1,0,0,1-3.8,1.7,32.21,32.21,0,0,1-5.13,1.36,33.89,33.89,0,0,1-6.24.54,32.86,32.86,0,0,1-11.84-2,23.39,23.39,0,0,1-9-6,26.91,26.91,0,0,1-5.67-10,44.85,44.85,0,0,1-2-14A44.26,44.26,0,0,1,3.1,129.05a30,30,0,0,1,6.06-10.61,25.38,25.38,0,0,1,9.35-6.51,31.51,31.51,0,0,1,12-2.21,28.44,28.44,0,0,1,5.12.44,30.18,30.18,0,0,1,4.57,1.16A23,23,0,0,1,44,113a11.48,11.48,0,0,1,2.34,1.6,5.84,5.84,0,0,1,.91,1.11,4.08,4.08,0,0,1,.4,1.14,12.49,12.49,0,0,1,.22,1.62c0,.63.07,1.4.07,2.32s0,1.83-.1,2.52a6.33,6.33,0,0,1-.34,1.67,2.38,2.38,0,0,1-.59.94,1.18,1.18,0,0,1-.79.3,3.41,3.41,0,0,1-1.88-.87,31.3,31.3,0,0,0-2.93-1.92A23.31,23.31,0,0,0,37,121.48a18.06,18.06,0,0,0-5.94-.87,14.07,14.07,0,0,0-11.86,6,20.72,20.72,0,0,0-3.18,7,35.8,35.8,0,0,0-1.09,9.23,36.37,36.37,0,0,0,1.16,9.74,18.83,18.83,0,0,0,3.3,6.78,13.43,13.43,0,0,0,5.18,4,17.12,17.12,0,0,0,6.83,1.3,19.59,19.59,0,0,0,6-.81,25,25,0,0,0,4.32-1.8c1.19-.66,2.18-1.25,3-1.78a3.75,3.75,0,0,1,1.8-.78,1.4,1.4,0,0,1,.79.19,1.54,1.54,0,0,1,.5.79,7.64,7.64,0,0,1,.29,1.65C48.09,162.77,48.12,163.72,48.12,164.9Z"/><path class="cls-2" d="M92.51,169.14a21.28,21.28,0,0,1-.13,2.49,7.15,7.15,0,0,1-.37,1.68,2.21,2.21,0,0,1-.61,1,1.35,1.35,0,0,1-.87.3H61.29a4,4,0,0,1-2.74-1,3.93,3.93,0,0,1-1.11-3.13V112.53a1.39,1.39,0,0,1,.32-.89,2.29,2.29,0,0,1,1.06-.64,10.13,10.13,0,0,1,2-.4,33,33,0,0,1,6.29,0,9.92,9.92,0,0,1,2,.4,2.23,2.23,0,0,1,1.06.64,1.39,1.39,0,0,1,.32.89v51.33H90.53a1.46,1.46,0,0,1,.87.28A2,2,0,0,1,92,165a6.47,6.47,0,0,1,.37,1.63A21.28,21.28,0,0,1,92.51,169.14Z"/><path class="cls-2" d="M155.78,141.92a47.36,47.36,0,0,1-2,14.2,28.78,28.78,0,0,1-5.87,10.63,25.28,25.28,0,0,1-9.64,6.66A35.67,35.67,0,0,1,125,175.7a39.19,39.19,0,0,1-13-1.95,22.6,22.6,0,0,1-9.25-5.94,25.45,25.45,0,0,1-5.54-10.16,50.82,50.82,0,0,1-1.85-14.6,45.64,45.64,0,0,1,2-13.93,28.46,28.46,0,0,1,5.87-10.53,25.65,25.65,0,0,1,9.64-6.66,35.6,35.6,0,0,1,13.34-2.31,39.11,39.11,0,0,1,12.8,1.92,22.46,22.46,0,0,1,9.27,5.92,25.82,25.82,0,0,1,5.62,10.08A48.42,48.42,0,0,1,155.78,141.92Zm-13.61.69a49.36,49.36,0,0,0-.79-9.15,19.65,19.65,0,0,0-2.69-7.05,12.86,12.86,0,0,0-5.05-4.54,17.37,17.37,0,0,0-7.9-1.6,16.1,16.1,0,0,0-8,1.8,14.6,14.6,0,0,0-5.18,4.81,19.72,19.72,0,0,0-2.79,7,43,43,0,0,0-.81,8.51,50.45,50.45,0,0,0,.79,9.4,20,20,0,0,0,2.66,7.12,12.11,12.11,0,0,0,5,4.51A17.85,17.85,0,0,0,125.4,165a16.25,16.25,0,0,0,8-1.78,14.29,14.29,0,0,0,5.18-4.83,20.4,20.4,0,0,0,2.78-7.13A43.43,43.43,0,0,0,142.17,142.61Z"/><path class="cls-2" d="M218.76,150.8A30,30,0,0,1,217,161.3a20.59,20.59,0,0,1-5.08,7.84,22,22,0,0,1-8.28,4.88,35.16,35.16,0,0,1-11.35,1.68,36,36,0,0,1-10.8-1.5,21.11,21.11,0,0,1-8.09-4.57,19.88,19.88,0,0,1-5.05-7.61,29.74,29.74,0,0,1-1.75-10.68V112.53a1.48,1.48,0,0,1,.29-.89A2.09,2.09,0,0,1,168,111a10.62,10.62,0,0,1,2-.4,27.12,27.12,0,0,1,3.16-.15,26.66,26.66,0,0,1,3.11.15,10.08,10.08,0,0,1,2,.4,2.29,2.29,0,0,1,1.06.64,1.39,1.39,0,0,1,.32.89V150.2a20.57,20.57,0,0,0,.94,6.59,12.15,12.15,0,0,0,2.68,4.61,11.26,11.26,0,0,0,4.2,2.74,15.6,15.6,0,0,0,5.44.91,15,15,0,0,0,5.48-.94,10.85,10.85,0,0,0,4.09-2.74,12.35,12.35,0,0,0,2.59-4.43,18.27,18.27,0,0,0,.91-6V112.53a1.43,1.43,0,0,1,.3-.89,2.07,2.07,0,0,1,1-.64,9.86,9.86,0,0,1,2-.4,27.15,27.15,0,0,1,3.13-.15,26,26,0,0,1,3.09.15,9.88,9.88,0,0,1,1.94.4,2.07,2.07,0,0,1,1,.64,1.43,1.43,0,0,1,.3.89Z"/><path class="cls-2" d="M285.63,141.72a43.9,43.9,0,0,1-2.29,15,25.5,25.5,0,0,1-6.59,10.18,26.52,26.52,0,0,1-10.43,5.8,51.13,51.13,0,0,1-14.62,1.85H236.46a4,4,0,0,1-2.74-1,3.93,3.93,0,0,1-1.11-3.13V114.84a4,4,0,0,1,1.11-3.13,4,4,0,0,1,2.74-1h16.37a45.84,45.84,0,0,1,14.48,2,26.12,26.12,0,0,1,10,5.92,25.43,25.43,0,0,1,6.19,9.69A38.7,38.7,0,0,1,285.63,141.72Zm-13.42.45a31.93,31.93,0,0,0-1.06-8.44,17.85,17.85,0,0,0-3.4-6.75,15.77,15.77,0,0,0-6-4.47,24.37,24.37,0,0,0-9.64-1.6h-6.56v43.4h6.76a25.57,25.57,0,0,0,9-1.38,15,15,0,0,0,6.09-4.17,18.18,18.18,0,0,0,3.65-6.93A34.85,34.85,0,0,0,272.21,142.17Z"/><path class="cls-2" d="M309.3,172.79a1.39,1.39,0,0,1-.32.89,2.32,2.32,0,0,1-1.06.64,10.81,10.81,0,0,1-2,.39,33,33,0,0,1-6.29,0,11,11,0,0,1-2-.39,2.32,2.32,0,0,1-1.06-.64,1.39,1.39,0,0,1-.32-.89V112.53a1.39,1.39,0,0,1,.32-.89,2.25,2.25,0,0,1,1.09-.64,10.49,10.49,0,0,1,2-.4,26.66,26.66,0,0,1,3.11-.15,27.12,27.12,0,0,1,3.16.15,9.92,9.92,0,0,1,2,.4,2.23,2.23,0,0,1,1.06.64,1.39,1.39,0,0,1,.32.89Z"/><path class="cls-2" d="M359,116.08a21.8,21.8,0,0,1-.12,2.49,5.46,5.46,0,0,1-.4,1.6,2.52,2.52,0,0,1-.61.89,1.17,1.17,0,0,1-.79.29H336.23v17.17h19.58a1.39,1.39,0,0,1,.79.24,2.23,2.23,0,0,1,.61.84,5.83,5.83,0,0,1,.4,1.58,25.38,25.38,0,0,1,0,4.93,6.58,6.58,0,0,1-.4,1.63,2.32,2.32,0,0,1-.61.91,1.28,1.28,0,0,1-.79.27H336.23v23.77a1.51,1.51,0,0,1-.3.94,2.25,2.25,0,0,1-1.06.66,9,9,0,0,1-2,.42,32.94,32.94,0,0,1-6.28,0,8.61,8.61,0,0,1-2-.42,2.42,2.42,0,0,1-1.06-.66,1.41,1.41,0,0,1-.32-.94V114.84a4,4,0,0,1,1.11-3.13,4,4,0,0,1,2.74-1h30a1.26,1.26,0,0,1,.79.27,2.27,2.27,0,0,1,.61.89,5.85,5.85,0,0,1,.4,1.65A22.37,22.37,0,0,1,359,116.08Z"/><path class="cls-2" d="M395.36,150.35v22.44a1.39,1.39,0,0,1-.32.89,2.37,2.37,0,0,1-1.06.64,11,11,0,0,1-2,.39,33,33,0,0,1-6.29,0,11.59,11.59,0,0,1-2-.39,2.16,2.16,0,0,1-1.06-.64,1.48,1.48,0,0,1-.29-.89V150.35l-17.46-34.77a16,16,0,0,1-1.21-2.83,1.42,1.42,0,0,1,.3-1.53,3.54,3.54,0,0,1,2.09-.64c1-.08,2.44-.13,4.25-.13,1.51,0,2.71,0,3.62.1a9,9,0,0,1,2.14.37,2.46,2.46,0,0,1,1.16.72,5.52,5.52,0,0,1,.72,1.13l7.1,15.69q1,2.26,2.05,4.78c.67,1.68,1.35,3.43,2,5.28h.1q.94-2.67,1.93-5.18c.65-1.68,1.29-3.27,1.92-4.79l7-15.58a4,4,0,0,1,.62-1.26,2.63,2.63,0,0,1,1.11-.76,7,7,0,0,1,2-.4c.85-.06,2-.1,3.4-.1,1.88,0,3.33,0,4.37.13a3.63,3.63,0,0,1,2.12.64,1.41,1.41,0,0,1,.27,1.55,17.86,17.86,0,0,1-1.18,2.81Z"/><path class="cls-1" d="M354.32,24.05C346.58,8.18,332.74,0,314.17,0c-15.37,0-27.25,5.82-35.35,16.7l4.61,8.63c6-10.45,17.15-16.83,30.22-17C330,8,343.29,17,348.09,32.13a7.72,7.72,0,0,0,1.65,3.11l8.47-7.47A7,7,0,0,1,354.32,24.05Z"/><path class="cls-2" d="M273.36,25.1c-1.37,2.75-3,4-6.26,4.41-13.7,1.83-24.26,13.78-24.26,27.07S253.66,82,267.45,83.89c9,1.25,18.07.41,27.1.56,2.92,0,4.07,1,4.26,3.69s-1.42,2.84-3.67,2.92c-2.46.09-5.13.9-3.28,3.86a71,71,0,0,0,7.51,9.69c2.19,2.43,4.93,2.11,7-.26,2.42-2.79,4.61-5.77,6.73-8.77,1.69-2.39.92-4.49-2.17-4.43-3.76.07-3.57-1.77-3.67-4.2-.29-7-4.78-11-12.31-11.13-3.74-.07-7.47,0-11.21,0s-7.18.06-10.77,0c-12.2-.24-21.55-8.71-21.3-19.25.27-11.3,9.75-19.47,22.41-18.93,3.18.14,4.33-.41,5.18-3.43a35.32,35.32,0,0,1,3.35-8L278,17.53A50.09,50.09,0,0,0,273.36,25.1Z"/><path class="cls-2" d="M363.4,29.79A31.4,31.4,0,0,1,359,28.6l-8.47,7.47c1.18,1.21,2.84,1.5,5.43,1.39,10.13-.41,19.07,6.56,20.49,15.38,1.65,10.21-3.91,19.46-13.94,21.92-9.56,2.34-19.44.83-29.17.85-2.33,0-3.47-2-3.89-4.22s.9-2.54,2.75-3.12c2.86-.89,3.65-2.88,1.88-5.35s-3.61-5.13-5.64-7.53c-2.28-2.69-4.88-2.8-7.18-.18a90.38,90.38,0,0,0-6.15,8.17c-1.69,2.41-.56,4.65,2,4.86,3.57.29,3.46,2.28,3.8,4.47,1,6.42,5.62,11.3,12.15,11.58,9.16.38,18.36.73,27.52-.32a29,29,0,0,0,11.57-4c9.66-5.69,15.4-17.21,13.25-27.6C383.08,40.8,375.89,32.83,363.4,29.79Z"/><path class="cls-3" d="M164.32,27.4h-16L128.27,85.07h13.66l4-12.89h2.58c0-.11,0-.23,0-.34a3,3,0,0,1,.87-2.09,2.71,2.71,0,0,1,1-.63l.09-.11c.33-.45.65-.9,1-1.31a10,10,0,0,1,1.67-1.44,6.76,6.76,0,0,1,4.29-1.56,6.46,6.46,0,0,1,4.13,1.86c.12.11.24.23.35.35a5.86,5.86,0,0,1,.67.32l0,0a3,3,0,0,1,2.28-.29,2.9,2.9,0,0,1,1.76,1.36c.22.49.46,1,.65,1.46a5,5,0,0,1,.29,1.45,6.18,6.18,0,0,1-.21,2.34,1.92,1.92,0,0,1-.14.36l3.51,11.2H184.4ZM149.09,62.16l7.25-23.3,7.24,23.3Z"/><path class="cls-4" d="M128.27,85.07H143a35.4,35.4,0,0,1,5.66-7.77l-8.89-9.1C130.7,76.52,128.27,85.07,128.27,85.07Z"/><rect class="cls-3" x="166.75" y="62.84" width="7.24" height="17.72" transform="translate(-13.79 55.8) rotate(-17.89)"/><path class="cls-5" d="M161.56,56.28,164,67.58c11.44-5,23.19-2.78,23.19-2.78V53.07C176.76,52.26,168.33,53.67,161.56,56.28Z"/><path class="cls-6" d="M139.81,68.2l8.89,9.1a40.65,40.65,0,0,1,16.33-10l-3.14-11.17A56,56,0,0,0,139.81,68.2Z"/><path class="cls-1" d="M234.9,83.69a1.67,1.67,0,0,1-.18.81,1.45,1.45,0,0,1-.83.55,8.22,8.22,0,0,1-1.94.31c-.85.06-2,.09-3.47.09q-1.84,0-2.94-.09A6.55,6.55,0,0,1,223.8,85a1.82,1.82,0,0,1-.9-.62,3.28,3.28,0,0,1-.44-.9l-5.1-12.7c-.61-1.43-1.21-2.71-1.8-3.82a12.4,12.4,0,0,0-2-2.79,7,7,0,0,0-2.48-1.69,8.61,8.61,0,0,0-3.25-.57h-3.6V83.6a1.22,1.22,0,0,1-.29.79A1.89,1.89,0,0,1,203,85a8.49,8.49,0,0,1-1.76.35,23.67,23.67,0,0,1-2.81.14,24,24,0,0,1-2.8-.14A8.33,8.33,0,0,1,193.9,85a1.81,1.81,0,0,1-.93-.57,1.31,1.31,0,0,1-.26-.79V32a3.54,3.54,0,0,1,1-2.8,3.59,3.59,0,0,1,2.44-.85h14.72q2.23,0,3.69.09c1,.05,1.85.13,2.64.22a23.52,23.52,0,0,1,6.17,1.67A14.93,14.93,0,0,1,228,33.39a13,13,0,0,1,2.92,4.53,16.62,16.62,0,0,1,1,6,17.78,17.78,0,0,1-.72,5.21,13.5,13.5,0,0,1-2.14,4.19,13.88,13.88,0,0,1-3.47,3.21,18.69,18.69,0,0,1-4.7,2.2,13.53,13.53,0,0,1,2.4,1.49,13.31,13.31,0,0,1,2.11,2.13,21.09,21.09,0,0,1,1.86,2.86A36.54,36.54,0,0,1,229,68.84L233.8,80c.44,1.11.73,1.93.88,2.44A5,5,0,0,1,234.9,83.69ZM220,45.1a8.43,8.43,0,0,0-1.28-4.74,6.94,6.94,0,0,0-4.17-2.73,17.85,17.85,0,0,0-2-.35,27.69,27.69,0,0,0-3.1-.13h-5.18V53.28h5.88a14.26,14.26,0,0,0,4.31-.59A8.81,8.81,0,0,0,217.54,51a6.84,6.84,0,0,0,1.84-2.58A8.64,8.64,0,0,0,220,45.1Z"/></g></g></svg>