<?xml version="1.0" standalone="no"?>
<!DOCTYPE svg PUBLIC "-//W3C//DTD SVG 20010904//EN"
 "http://www.w3.org/TR/2001/REC-SVG-20010904/DTD/svg10.dtd">
<svg version="1.0" xmlns="http://www.w3.org/2000/svg"
 width="1229.000000pt" height="334.000000pt" viewBox="0 0 1229.000000 334.000000"
 preserveAspectRatio="xMidYMid meet">

<g transform="translate(0.000000,334.000000) scale(0.100000,-0.100000)"
fill="#000000" stroke="none">
<path d="M1586 2848 c-113 -44 -293 -138 -405 -211 -312 -205 -516 -447 -607
-719 -24 -73 -55 -228 -53 -273 0 -21 45 118 55 173 4 18 9 30 12 27 3 -3 23
25 45 62 22 37 74 102 115 145 195 204 444 298 790 298 136 0 359 -21 300 -28
l-26 -3 38 -67 c29 -49 51 -74 85 -94 58 -35 82 -75 90 -152 7 -68 40 -146 60
-146 14 0 17 18 30 145 4 33 15 100 26 150 10 49 19 92 19 96 0 4 -20 12 -45
18 -25 6 -45 17 -45 23 0 7 9 57 21 111 12 54 18 101 14 105 -13 13 -339 4
-465 -12 -226 -30 -414 -83 -575 -164 -210 -105 -333 -219 -435 -403 -23 -41
-38 -63 -35 -49 13 52 107 227 155 291 72 96 225 238 332 309 124 82 325 179
478 231 69 23 127 43 129 45 6 5 -11 124 -17 124 -4 -1 -42 -15 -86 -32z"/>
<path d="M10530 2742 l1 -127 70 -34 c84 -40 206 -150 260 -234 36 -56 74
-146 98 -233 14 -53 42 -77 126 -109 176 -66 299 -178 380 -347 50 -104 69
-199 63 -322 -14 -277 -198 -512 -473 -603 -72 -24 -95 -27 -238 -27 l-159 -1
-29 -33 c-23 -26 -29 -41 -29 -80 0 -86 42 -117 175 -131 200 -20 416 33 591
144 75 48 194 162 249 240 224 315 224 745 0 1060 -87 122 -242 248 -378 309
-44 19 -58 31 -63 53 -26 103 -110 240 -213 347 -110 113 -248 201 -379 239
l-52 16 0 -127z"/>
<path d="M9770 1860 l0 -100 100 0 100 0 0 100 0 100 -100 0 -100 0 0 -100z"/>
<path d="M9130 1825 l0 -65 65 0 65 0 0 65 0 65 -65 0 -65 0 0 -65z"/>
<path d="M10165 1804 c-22 -7 -55 -13 -72 -13 -35 -1 -47 -21 -12 -21 11 0 29
-5 40 -10 18 -10 19 -24 19 -300 0 -313 -1 -320 -56 -320 -13 0 -24 -3 -24 -7
0 -5 52 -8 115 -8 63 0 115 3 115 8 0 4 -13 7 -28 7 -48 0 -52 13 -52 165 0
157 6 176 66 201 71 30 136 7 154 -54 7 -22 10 -96 8 -185 -3 -144 -2 -148 17
-143 11 3 47 6 80 7 52 1 55 2 27 9 -18 4 -36 11 -40 15 -4 3 -9 83 -12 177
l-5 170 -32 28 c-63 56 -150 52 -218 -11 -23 -21 -44 -39 -46 -39 -2 0 -3 51
-1 113 2 62 2 137 0 168 l-3 55 -40 -12z"/>
<path d="M8200 1782 c0 -12 24 -22 56 -22 42 0 46 -32 42 -318 -3 -263 -3
-264 -27 -283 -13 -10 -32 -19 -42 -19 -10 0 -19 -3 -19 -8 0 -4 47 -7 105 -7
107 0 133 7 70 19 -25 5 -39 14 -45 31 -9 25 -19 515 -10 515 5 0 129 -260
244 -510 33 -71 35 -73 45 -50 18 42 217 483 237 523 10 20 21 37 26 37 4 0 8
-115 8 -255 0 -242 -1 -256 -20 -275 -11 -11 -31 -20 -45 -20 -14 0 -25 -4
-25 -8 0 -5 56 -9 125 -8 69 1 125 4 125 7 0 3 -17 10 -37 15 -27 6 -39 16
-44 34 -11 39 -10 526 1 554 6 18 19 27 45 32 60 11 39 19 -50 19 l-84 0 -20
-46 c-40 -97 -225 -489 -230 -489 -3 0 -62 119 -131 265 l-124 265 -72 0 c-40
0 -79 3 -88 6 -9 3 -16 2 -16 -4z"/>
<path d="M5151 1700 l-33 -80 30 -47 c27 -44 145 -247 204 -353 14 -25 72
-126 130 -225 57 -99 109 -189 116 -200 6 -11 33 -58 60 -105 28 -47 65 -112
84 -145 31 -54 38 -61 74 -66 21 -4 40 -6 41 -5 0 0 3 12 5 26 3 22 -1 25 -39
30 -51 7 -68 21 -98 79 -17 34 -459 1074 -492 1159 -3 6 -15 12 -27 12 -18 0
-28 -14 -55 -80z"/>
<path d="M2723 1763 c-56 -4 -61 -9 -40 -36 10 -13 24 -15 75 -10 57 5 62 8
62 29 0 19 -5 24 -22 22 -13 -1 -47 -3 -75 -5z"/>
<path d="M6622 1729 c13 -22 44 -65 69 -95 25 -30 52 -74 59 -97 12 -41 84
-182 113 -221 14 -19 16 -17 41 32 53 104 41 241 -27 319 -37 42 -113 80 -177
88 -25 3 -57 8 -73 10 l-27 5 22 -41z"/>
<path d="M4100 1756 c0 -3 9 -21 21 -40 16 -27 28 -36 47 -36 67 -1 89 -34 93
-137 2 -47 5 -53 24 -53 28 0 35 34 35 173 l0 97 -110 0 c-60 0 -110 -2 -110
-4z"/>
<path d="M9247 1556 c-80 -30 -127 -102 -135 -207 -4 -53 0 -75 17 -114 28
-63 46 -83 96 -106 87 -40 255 -5 255 54 0 3 -17 -4 -37 -14 -53 -27 -131 -25
-174 4 -40 26 -79 98 -79 144 l0 33 88 1 c48 1 116 4 152 8 l65 6 -1 46 c-4
94 -57 148 -152 155 -35 3 -72 -1 -95 -10z m134 -34 c26 -23 32 -38 37 -81 3
-39 1 -55 -9 -62 -16 -10 -92 -11 -166 -3 -51 7 -53 8 -53 37 0 41 35 112 63
125 43 21 94 14 128 -16z"/>
<path d="M9706 1555 c-135 -48 -156 -218 -33 -264 36 -14 34 -22 -13 -49 -33
-18 -40 -28 -40 -53 0 -23 7 -34 30 -47 16 -9 30 -20 30 -23 0 -3 -22 -16 -49
-29 -52 -24 -61 -38 -61 -102 0 -47 45 -101 98 -119 59 -20 160 -15 217 10 92
41 135 100 135 186 0 38 -5 52 -29 76 -29 28 -31 29 -138 29 -114 0 -155 11
-161 44 -7 33 36 66 85 66 56 0 118 32 144 73 16 25 19 45 16 90 l-3 57 53 0
c46 0 53 3 53 19 0 18 -5 19 -55 14 -42 -4 -65 -1 -104 16 -57 24 -118 26
-175 6z m131 -40 c35 -35 35 -37 31 -102 -4 -57 -8 -69 -32 -89 -42 -37 -106
-34 -140 6 -71 85 -28 220 71 220 27 0 43 -8 70 -35z m79 -419 c108 -72 -23
-248 -165 -221 -82 15 -121 59 -121 133 0 44 19 73 65 97 40 21 183 15 221 -9z"/>
<path d="M10743 1541 c-57 -27 -63 -33 -63 -61 0 -39 18 -39 32 1 12 34 41 49
93 49 68 0 115 -45 115 -108 0 -28 -3 -30 -62 -41 -153 -29 -197 -58 -205
-135 -15 -131 95 -177 208 -87 28 23 55 41 59 41 5 0 6 -17 3 -37 l-5 -38 71
0 c39 0 71 3 71 8 0 4 -9 7 -19 7 -44 0 -51 23 -52 173 0 83 -5 156 -12 176
-17 48 -56 74 -119 78 -43 3 -64 -1 -115 -26z m177 -233 c-1 -48 -6 -80 -15
-92 -45 -60 -129 -75 -164 -30 -28 36 -27 86 2 120 19 21 131 70 170 73 4 1 7
-32 7 -71z"/>
<path d="M3266 784 c-11 -28 -6 -58 13 -88 l19 -29 7 49 c4 27 9 57 12 67 6
22 -42 24 -51 1z"/>
</g>
</svg>
